# xmcd
#
# Track frame offsets:
#	150
#	17022
#	34720
#	53450
#	68267
#	88840
#	107360
#	125172
#	144067
#	163825
#
# Disc length: 2435 seconds
#
# Revision: 3
# Processed by: cddbd v1.5.2PL0 Copyright (c) Steve Scherf et al.
# Submitted via: EasyCDDAExtractor 15.3.0.1
#
DISCID=7309810a
DTITLE=Ednita Nazario - Por Ti
DYEAR=2003
DGENRE=Latin
TTITLE0=Por Ti (You Made Me Find Myself)
TTITLE1=A Que No Te Vas
TTITLE2=Si No Me Amas
TTITLE3=Cansada De Estar Cansada
TTITLE4=Mas Mala Que Tu
TTITLE5=Ahora
TTITLE6=Curame
TTITLE7=Quimica Ideal
TTITLE8=Te Quedaras Hundido
TTITLE9=El Privilegio De Dar
EXTD=
EXTT0=
EXTT1=
EXTT2=
EXTT3=
EXTT4=
EXTT5=
EXTT6=
EXTT7=
EXTT8=
EXTT9=
PLAYORDER=
